<svg width="359" height="270" viewBox="0 0 359 270" fill="none" xmlns="http://www.w3.org/2000/svg">
<rect width="359" height="270" fill="#FAF3E5"/>
<path d="M30.8061 94.5868V109.668H27.6543V97.1789H21.5571V109.668H18.4054V94.5868H30.8061ZM38.8934 109.889C37.7495 109.889 36.7603 109.646 35.9258 109.16C35.0961 108.669 34.4554 107.986 34.0038 107.113C33.5522 106.234 33.3263 105.215 33.3263 104.057C33.3263 102.888 33.5522 101.867 34.0038 100.993C34.4554 100.115 35.0961 99.4322 35.9258 98.9462C36.7603 98.4552 37.7495 98.2098 38.8934 98.2098C40.0372 98.2098 41.024 98.4552 41.8536 98.9462C42.6882 99.4322 43.3313 100.115 43.783 100.993C44.2346 101.867 44.4604 102.888 44.4604 104.057C44.4604 105.215 44.2346 106.234 43.783 107.113C43.3313 107.986 42.6882 108.669 41.8536 109.16C41.024 109.646 40.0372 109.889 38.8934 109.889ZM38.9081 107.459C39.4285 107.459 39.863 107.311 40.2115 107.017C40.5601 106.717 40.8227 106.31 40.9994 105.795C41.1811 105.279 41.2719 104.692 41.2719 104.035C41.2719 103.377 41.1811 102.79 40.9994 102.275C40.8227 101.759 40.5601 101.352 40.2115 101.052C39.863 100.753 39.4285 100.603 38.9081 100.603C38.3828 100.603 37.941 100.753 37.5826 101.052C37.2292 101.352 36.9616 101.759 36.78 102.275C36.6032 102.79 36.5149 103.377 36.5149 104.035C36.5149 104.692 36.6032 105.279 36.78 105.795C36.9616 106.31 37.2292 106.717 37.5826 107.017C37.941 107.311 38.3828 107.459 38.9081 107.459ZM46.5002 109.668V98.3571H51.3235C52.7178 98.3571 53.8199 98.6222 54.6299 99.1524C55.4399 99.6826 55.8449 100.436 55.8449 101.413C55.8449 102.027 55.6166 102.537 55.1601 102.945C54.7035 103.352 54.0702 103.627 53.2602 103.769C53.9377 103.819 54.5145 103.973 54.9907 104.233C55.4718 104.489 55.8376 104.82 56.0879 105.228C56.3432 105.635 56.4708 106.087 56.4708 106.582C56.4708 107.226 56.299 107.778 55.9554 108.239C55.6166 108.701 55.1184 109.054 54.4605 109.3C53.8076 109.545 53.0098 109.668 52.0673 109.668H46.5002ZM49.4237 107.319H52.0673C52.5042 107.319 52.8454 107.216 53.0909 107.01C53.3412 106.798 53.4664 106.511 53.4664 106.148C53.4664 105.745 53.3412 105.429 53.0909 105.198C52.8454 104.967 52.5042 104.852 52.0673 104.852H49.4237V107.319ZM49.4237 103.011H51.3898C51.704 103.011 51.9715 102.967 52.1925 102.878C52.4183 102.785 52.5901 102.653 52.7079 102.481C52.8307 102.309 52.892 102.105 52.892 101.87C52.892 101.521 52.7521 101.249 52.4723 101.052C52.1925 100.856 51.8095 100.758 51.3235 100.758H49.4237V103.011ZM60.4142 101.833H63.7942C65.2915 101.833 66.4599 102.191 67.2994 102.908C68.1388 103.62 68.5586 104.572 68.5586 105.765C68.5586 106.541 68.3696 107.223 67.9916 107.812C67.6136 108.396 67.0686 108.853 66.3568 109.182C65.645 109.506 64.7908 109.668 63.7942 109.668H58.448V98.3571H61.4451V107.201H63.7942C64.3195 107.201 64.7515 107.068 65.0902 106.803C65.4289 106.538 65.6008 106.2 65.6057 105.787C65.6008 105.35 65.4289 104.994 65.0902 104.719C64.7515 104.44 64.3195 104.3 63.7942 104.3H60.4142V101.833ZM69.7736 109.668V98.3571H72.9106V109.668H69.7736ZM75.418 98.3571H78.4151V107.179H81.6036V98.3571H84.6007V107.179H87.7892V98.3571H90.7863V109.668H75.418V98.3571ZM98.3729 109.889C97.2094 109.889 96.2079 109.653 95.3684 109.182C94.5339 108.706 93.8908 108.033 93.4391 107.164C92.9875 106.29 92.7616 105.257 92.7616 104.064C92.7616 102.901 92.9875 101.879 93.4391 101.001C93.8908 100.122 94.5265 99.4371 95.3464 98.9462C96.1711 98.4552 97.1382 98.2098 98.2477 98.2098C98.9939 98.2098 99.6886 98.3301 100.332 98.5706C100.98 98.8063 101.544 99.1622 102.025 99.6384C102.511 100.115 102.889 100.713 103.159 101.435C103.429 102.152 103.564 102.991 103.564 103.954V104.815H94.0135V102.871H100.611C100.611 102.419 100.513 102.019 100.317 101.671C100.121 101.322 99.8481 101.05 99.4996 100.853C99.1559 100.652 98.7558 100.551 98.2992 100.551C97.8231 100.551 97.4009 100.662 97.0327 100.883C96.6694 101.099 96.3847 101.391 96.1785 101.759C95.9723 102.122 95.8667 102.527 95.8618 102.974V104.823C95.8618 105.382 95.9649 105.866 96.1711 106.273C96.3822 106.681 96.6792 106.995 97.0621 107.216C97.445 107.437 97.8991 107.547 98.4244 107.547C98.773 107.547 99.0921 107.498 99.3817 107.4C99.6714 107.302 99.9193 107.154 100.125 106.958C100.332 106.762 100.489 106.521 100.597 106.236L103.498 106.428C103.351 107.125 103.049 107.734 102.592 108.254C102.141 108.77 101.557 109.172 100.84 109.462C100.128 109.746 99.3056 109.889 98.3729 109.889ZM113.483 102.761V105.228H107.578V102.761H113.483ZM108.609 98.3571V109.668H105.612V98.3571H108.609ZM115.45 98.3571V109.668H112.475V98.3571H115.45ZM125.755 102.761V105.228H119.85V102.761H125.755ZM120.88 98.3571V109.668H117.883V98.3571H120.88ZM127.721 98.3571V109.668H124.746V98.3571H127.721ZM132.121 101.833H135.501C136.999 101.833 138.167 102.191 139.007 102.908C139.846 103.62 140.266 104.572 140.266 105.765C140.266 106.541 140.077 107.223 139.699 107.812C139.321 108.396 138.776 108.853 138.064 109.182C137.352 109.506 136.498 109.668 135.501 109.668H130.155V98.3571H133.152V107.201H135.501C136.027 107.201 136.459 107.068 136.797 106.803C137.136 106.538 137.308 106.2 137.313 105.787C137.308 105.35 137.136 104.994 136.797 104.719C136.459 104.44 136.027 104.3 135.501 104.3H132.121V101.833ZM141.481 109.668V98.3571H144.618V109.668H141.481ZM150.122 105.529L154.194 98.3571H157.287V109.668H154.297V102.473L150.24 109.668H147.125V98.3571H150.122V105.529ZM153.657 94.41H155.844C155.839 95.3035 155.508 96.0227 154.85 96.5677C154.197 97.1126 153.313 97.385 152.199 97.385C151.08 97.385 150.193 97.1126 149.54 96.5677C148.888 96.0227 148.561 95.3035 148.561 94.41H150.733C150.728 94.7488 150.836 95.0532 151.057 95.3232C151.283 95.5932 151.664 95.7282 152.199 95.7282C152.719 95.7282 153.092 95.5956 153.318 95.3305C153.544 95.0654 153.657 94.7586 153.657 94.41ZM17.9267 134.668V123.357H21.0637V127.746H21.9474L25.0255 123.357H28.7074L24.7088 128.968L28.7515 134.668H25.0255L22.2346 130.655H21.0637V134.668H17.9267ZM34.2597 125.699C33.9062 125.699 33.592 125.767 33.3171 125.905C33.0422 126.042 32.8262 126.234 32.6691 126.479C32.5169 126.72 32.4408 127.005 32.4408 127.334H29.6205C29.6205 126.72 29.7383 126.16 29.9739 125.655C30.2096 125.144 30.5385 124.705 30.9607 124.336C31.3829 123.963 31.8738 123.676 32.4335 123.475C32.998 123.274 33.6068 123.173 34.2597 123.173C35.3986 123.173 36.3559 123.428 37.1316 123.939C37.9122 124.444 38.5013 125.129 38.8989 125.993C39.3015 126.852 39.5027 127.817 39.5027 128.887V129.16C39.5027 130.235 39.3039 131.204 38.9063 132.068C38.5086 132.932 37.9195 133.617 37.139 134.123C36.3633 134.624 35.4035 134.874 34.2597 134.874C33.3466 134.874 32.5415 134.695 31.8444 134.337C31.1472 133.973 30.6023 133.46 30.2096 132.797C29.8168 132.13 29.6205 131.337 29.6205 130.419H32.4408C32.4408 130.768 32.5145 131.087 32.6617 131.376C32.809 131.666 33.0177 131.897 33.2877 132.068C33.5626 132.24 33.8866 132.329 34.2597 132.334C34.8439 132.329 35.298 132.164 35.622 131.84C35.9509 131.516 36.1792 131.111 36.3068 130.625C36.4394 130.134 36.5057 129.646 36.5057 129.16V128.887C36.5057 128.352 36.4369 127.842 36.2995 127.356C36.1669 126.87 35.9362 126.472 35.6073 126.163C35.2833 125.853 34.8341 125.699 34.2597 125.699ZM37.4114 128.085V129.94H33.4129V128.085H37.4114ZM41.5591 123.357H44.5562V132.179H47.7447V123.357H50.7418V132.179H53.9303V123.357H56.9274V134.668H41.5591V123.357ZM68.7629 119.204L69.7202 121.251C69.4011 121.516 69.0477 121.712 68.6598 121.84C68.272 121.963 67.8081 122.044 67.2681 122.083C66.733 122.122 66.08 122.149 65.3093 122.164C64.4354 122.174 63.7236 122.314 63.1738 122.584C62.6239 122.854 62.2067 123.279 61.9219 123.858C61.6372 124.432 61.4506 125.183 61.3623 126.111H61.4727C61.8115 125.419 62.2877 124.884 62.9013 124.506C63.5199 124.128 64.2833 123.939 65.1915 123.939C66.1537 123.939 66.9956 124.15 67.7173 124.572C68.4438 124.994 69.0084 125.601 69.4109 126.391C69.8135 127.181 70.0148 128.129 70.0148 129.233C70.0148 130.382 69.789 131.381 69.3373 132.23C68.8906 133.075 68.2548 133.73 67.4301 134.197C66.6053 134.658 65.6235 134.889 64.4845 134.889C63.3407 134.889 62.3539 134.648 61.5243 134.167C60.6995 133.686 60.0613 132.977 59.6097 132.039C59.1629 131.101 58.9396 129.948 58.9396 128.578V127.65C58.9396 124.926 59.4698 122.905 60.5302 121.59C61.5906 120.274 63.1492 119.606 65.2062 119.587C65.7658 119.577 66.2715 119.575 66.7231 119.579C67.1748 119.584 67.57 119.562 67.9087 119.513C68.2524 119.464 68.5371 119.361 68.7629 119.204ZM64.4993 132.459C64.9804 132.459 65.3927 132.334 65.7364 132.083C66.0849 131.833 66.3525 131.474 66.539 131.008C66.7305 130.542 66.8262 129.985 66.8262 129.336C66.8262 128.693 66.7305 128.148 66.539 127.702C66.3525 127.25 66.0849 126.906 65.7364 126.671C65.3878 126.435 64.9706 126.317 64.4845 126.317C64.1213 126.317 63.7948 126.384 63.5051 126.516C63.2155 126.649 62.9676 126.845 62.7614 127.105C62.5601 127.361 62.403 127.677 62.2901 128.055C62.1821 128.428 62.1281 128.855 62.1281 129.336C62.1281 130.304 62.3368 131.067 62.754 131.627C63.1762 132.181 63.758 132.459 64.4993 132.459ZM77.2516 134.889C76.0881 134.889 75.0866 134.653 74.2471 134.182C73.4126 133.706 72.7695 133.033 72.3178 132.164C71.8662 131.29 71.6403 130.257 71.6403 129.064C71.6403 127.901 71.8662 126.879 72.3178 126.001C72.7695 125.122 73.4052 124.437 74.225 123.946C75.0498 123.455 76.0169 123.21 77.1264 123.21C77.8726 123.21 78.5673 123.33 79.2104 123.571C79.8584 123.806 80.4229 124.162 80.904 124.638C81.3901 125.115 81.7681 125.713 82.0381 126.435C82.3081 127.152 82.4431 127.991 82.4431 128.954V129.815H72.8922V127.871H79.4902C79.4902 127.419 79.392 127.019 79.1956 126.671C78.9993 126.322 78.7268 126.05 78.3782 125.853C78.0346 125.652 77.6345 125.551 77.1779 125.551C76.7017 125.551 76.2796 125.662 75.9114 125.883C75.5481 126.099 75.2633 126.391 75.0572 126.759C74.851 127.122 74.7454 127.527 74.7405 127.974V129.823C74.7405 130.382 74.8436 130.866 75.0498 131.273C75.2609 131.681 75.5579 131.995 75.9408 132.216C76.3237 132.437 76.7778 132.547 77.3031 132.547C77.6517 132.547 77.9708 132.498 78.2604 132.4C78.5501 132.302 78.798 132.154 79.0042 131.958C79.2104 131.762 79.3675 131.521 79.4755 131.236L82.3768 131.428C82.2295 132.125 81.9276 132.734 81.4711 133.254C81.0194 133.77 80.4352 134.172 79.7185 134.462C79.0066 134.746 78.1843 134.889 77.2516 134.889ZM84.4902 134.668V123.357H87.6272V127.746H88.5109L91.589 123.357H95.2709L91.2723 128.968L95.3151 134.668H91.589L88.7981 130.655H87.6272V134.668H84.4902ZM109.312 127.761V130.228H103.406V127.761H109.312ZM104.437 123.357V134.668H101.44V123.357H104.437ZM111.278 123.357V134.668H108.303V123.357H111.278ZM116.937 134.881C116.215 134.881 115.572 134.756 115.008 134.506C114.443 134.251 113.996 133.875 113.668 133.379C113.344 132.878 113.182 132.255 113.182 131.509C113.182 130.88 113.297 130.353 113.528 129.926C113.758 129.498 114.073 129.155 114.47 128.895C114.868 128.634 115.32 128.438 115.825 128.306C116.336 128.173 116.871 128.08 117.43 128.026C118.088 127.957 118.619 127.893 119.021 127.834C119.424 127.77 119.716 127.677 119.897 127.554C120.079 127.432 120.17 127.25 120.17 127.01V126.965C120.17 126.499 120.023 126.138 119.728 125.883C119.438 125.628 119.026 125.5 118.491 125.5C117.926 125.5 117.477 125.625 117.143 125.875C116.809 126.121 116.589 126.43 116.481 126.803L113.579 126.568C113.726 125.88 114.016 125.286 114.448 124.786C114.88 124.28 115.437 123.892 116.12 123.622C116.807 123.347 117.602 123.21 118.506 123.21C119.134 123.21 119.735 123.283 120.31 123.431C120.889 123.578 121.402 123.806 121.849 124.116C122.3 124.425 122.656 124.822 122.917 125.308C123.177 125.79 123.307 126.366 123.307 127.039V134.668H120.332V133.099H120.243C120.062 133.453 119.819 133.765 119.514 134.035C119.21 134.3 118.844 134.508 118.417 134.661C117.99 134.808 117.497 134.881 116.937 134.881ZM117.835 132.716C118.297 132.716 118.704 132.626 119.058 132.444C119.411 132.257 119.689 132.007 119.89 131.693C120.091 131.379 120.192 131.023 120.192 130.625V129.425C120.094 129.489 119.959 129.548 119.787 129.602C119.62 129.651 119.431 129.697 119.22 129.742C119.009 129.781 118.798 129.818 118.587 129.852C118.376 129.881 118.184 129.908 118.012 129.933C117.644 129.987 117.322 130.073 117.048 130.191C116.773 130.309 116.559 130.468 116.407 130.669C116.255 130.866 116.179 131.111 116.179 131.406C116.179 131.833 116.333 132.159 116.643 132.385C116.957 132.606 117.354 132.716 117.835 132.716ZM17.3376 150.824V148.357H27.5881V150.824H23.943V159.668H20.9533V150.824H17.3376ZM34.1953 159.889C33.0514 159.889 32.0622 159.646 31.2276 159.16C30.398 158.669 29.7573 157.986 29.3057 157.113C28.854 156.234 28.6282 155.215 28.6282 154.057C28.6282 152.888 28.854 151.867 29.3057 150.993C29.7573 150.115 30.398 149.432 31.2276 148.946C32.0622 148.455 33.0514 148.21 34.1953 148.21C35.3391 148.21 36.3259 148.455 37.1555 148.946C37.9901 149.432 38.6332 150.115 39.0848 150.993C39.5365 151.867 39.7623 152.888 39.7623 154.057C39.7623 155.215 39.5365 156.234 39.0848 157.113C38.6332 157.986 37.9901 158.669 37.1555 159.16C36.3259 159.646 35.3391 159.889 34.1953 159.889ZM34.21 157.459C34.7304 157.459 35.1648 157.311 35.5134 157.017C35.8619 156.717 36.1246 156.31 36.3013 155.795C36.483 155.279 36.5738 154.692 36.5738 154.035C36.5738 153.377 36.483 152.79 36.3013 152.275C36.1246 151.759 35.8619 151.352 35.5134 151.052C35.1648 150.753 34.7304 150.603 34.21 150.603C33.6847 150.603 33.2429 150.753 32.8845 151.052C32.531 151.352 32.2635 151.759 32.0818 152.275C31.9051 152.79 31.8167 153.377 31.8167 154.035C31.8167 154.692 31.9051 155.279 32.0818 155.795C32.2635 156.31 32.531 156.717 32.8845 157.017C33.2429 157.311 33.6847 157.459 34.21 157.459ZM41.8021 159.668V148.357H46.6254C48.0196 148.357 49.1217 148.622 49.9318 149.152C50.7418 149.683 51.1468 150.436 51.1468 151.413C51.1468 152.027 50.9185 152.537 50.462 152.945C50.0054 153.352 49.3721 153.627 48.5621 153.769C49.2396 153.819 49.8164 153.973 50.2926 154.233C50.7737 154.489 51.1394 154.82 51.3898 155.228C51.6451 155.635 51.7727 156.087 51.7727 156.582C51.7727 157.226 51.6009 157.778 51.2573 158.239C50.9185 158.701 50.4202 159.054 49.7624 159.3C49.1095 159.545 48.3117 159.668 47.3692 159.668H41.8021ZM44.7255 157.319H47.3692C47.8061 157.319 48.1473 157.216 48.3927 157.01C48.6431 156.798 48.7683 156.511 48.7683 156.148C48.7683 155.745 48.6431 155.429 48.3927 155.198C48.1473 154.967 47.8061 154.852 47.3692 154.852H44.7255V157.319ZM44.7255 153.011H46.6917C47.0059 153.011 47.2734 152.967 47.4943 152.878C47.7202 152.785 47.892 152.653 48.0098 152.481C48.1325 152.309 48.1939 152.105 48.1939 151.87C48.1939 151.521 48.054 151.249 47.7742 151.052C47.4943 150.856 47.1114 150.758 46.6254 150.758H44.7255V153.011ZM56.9753 159.881C56.2536 159.881 55.6105 159.756 55.0459 159.506C54.4814 159.251 54.0346 158.875 53.7057 158.379C53.3817 157.878 53.2197 157.255 53.2197 156.509C53.2197 155.88 53.3351 155.353 53.5658 154.926C53.7966 154.498 54.1107 154.155 54.5084 153.895C54.906 153.634 55.3577 153.438 55.8633 153.306C56.3739 153.173 56.909 153.08 57.4686 153.026C58.1265 152.957 58.6567 152.893 59.0592 152.834C59.4618 152.77 59.7539 152.677 59.9355 152.554C60.1172 152.432 60.208 152.25 60.208 152.01V151.965C60.208 151.499 60.0607 151.138 59.7662 150.883C59.4765 150.628 59.0641 150.5 58.529 150.5C57.9645 150.5 57.5153 150.625 57.1815 150.875C56.8476 151.121 56.6267 151.43 56.5187 151.803L53.6174 151.568C53.7646 150.88 54.0543 150.286 54.4863 149.786C54.9183 149.28 55.4755 148.892 56.1579 148.622C56.8452 148.347 57.6405 148.21 58.5438 148.21C59.1721 148.21 59.7735 148.283 60.3479 148.431C60.9272 148.578 61.4402 148.806 61.8869 149.116C62.3386 149.425 62.6945 149.822 62.9547 150.308C63.2149 150.79 63.345 151.366 63.345 152.039V159.668H60.37V158.099H60.2816C60.1 158.453 59.857 158.765 59.5526 159.035C59.2482 159.3 58.8825 159.508 58.4554 159.661C58.0283 159.808 57.5349 159.881 56.9753 159.881ZM57.8737 157.716C58.3351 157.716 58.7426 157.626 59.0961 157.444C59.4495 157.257 59.7269 157.007 59.9282 156.693C60.1294 156.379 60.2301 156.023 60.2301 155.625V154.425C60.1319 154.489 59.9969 154.548 59.8251 154.602C59.6582 154.651 59.4692 154.697 59.2581 154.742C59.047 154.781 58.8359 154.818 58.6248 154.852C58.4137 154.881 58.2222 154.908 58.0504 154.933C57.6822 154.987 57.3606 155.073 57.0857 155.191C56.8108 155.309 56.5973 155.468 56.4451 155.669C56.2929 155.866 56.2168 156.111 56.2168 156.406C56.2168 156.833 56.3714 157.159 56.6807 157.385C56.9949 157.606 57.3926 157.716 57.8737 157.716ZM65.7787 163.909V148.357H68.8715V150.257H69.0115C69.1489 149.953 69.3477 149.643 69.6079 149.329C69.873 149.01 70.2167 148.745 70.6389 148.534C71.066 148.318 71.5962 148.21 72.2294 148.21C73.0542 148.21 73.8151 148.426 74.5122 148.858C75.2093 149.285 75.7665 149.93 76.1838 150.794C76.6011 151.654 76.8097 152.731 76.8097 154.027C76.8097 155.289 76.606 156.354 76.1986 157.223C75.796 158.087 75.2462 158.743 74.5491 159.189C73.8569 159.631 73.0812 159.852 72.2221 159.852C71.6133 159.852 71.0954 159.751 70.6683 159.55C70.2461 159.349 69.9 159.096 69.63 158.792C69.36 158.482 69.1538 158.171 69.0115 157.856H68.9157V163.909H65.7787ZM68.8494 154.012C68.8494 154.685 68.9427 155.272 69.1293 155.772C69.3158 156.273 69.5858 156.663 69.9393 156.943C70.2928 157.218 70.7223 157.356 71.228 157.356C71.7385 157.356 72.1705 157.216 72.524 156.936C72.8775 156.651 73.145 156.258 73.3267 155.758C73.5132 155.252 73.6065 154.67 73.6065 154.012C73.6065 153.36 73.5157 152.785 73.334 152.289C73.1524 151.794 72.8848 151.406 72.5314 151.126C72.1779 150.846 71.7434 150.706 71.228 150.706C70.7174 150.706 70.2854 150.841 69.9319 151.111C69.5834 151.381 69.3158 151.764 69.1293 152.26C68.9427 152.756 68.8494 153.34 68.8494 154.012ZM80.8672 151.833H84.2472C85.7445 151.833 86.9129 152.191 87.7524 152.908C88.5919 153.62 89.0116 154.572 89.0116 155.765C89.0116 156.541 88.8226 157.223 88.4446 157.812C88.0666 158.396 87.5217 158.853 86.8098 159.182C86.098 159.506 85.2438 159.668 84.2472 159.668H78.9011V148.357H81.8982V157.201H84.2472C84.7725 157.201 85.2045 157.068 85.5433 156.803C85.882 156.538 86.0538 156.2 86.0587 155.787C86.0538 155.35 85.882 154.994 85.5433 154.719C85.2045 154.44 84.7725 154.3 84.2472 154.3H80.8672V151.833ZM90.2267 159.668V148.357H93.3636V159.668H90.2267ZM99.7867 162.982V157.179H100.656C100.906 157.022 101.107 156.771 101.26 156.428C101.417 156.084 101.544 155.679 101.642 155.213C101.746 154.746 101.824 154.243 101.878 153.703C101.937 153.158 101.989 152.608 102.033 152.054L102.327 148.357H111.002V157.179H112.754V162.982H109.765V159.668H102.85V162.982H99.7867ZM103.778 157.179H108.042V150.772H104.993L104.875 152.054C104.792 153.261 104.671 154.287 104.514 155.132C104.357 155.971 104.112 156.654 103.778 157.179ZM113.92 159.668L113.905 157.179H114.281C114.546 157.179 114.774 157.115 114.965 156.987C115.162 156.855 115.324 156.641 115.451 156.347C115.579 156.052 115.68 155.662 115.753 155.176C115.827 154.685 115.876 154.081 115.901 153.364L116.085 148.357H124.686V159.668H121.696V150.824H118.905L118.728 154.278C118.684 155.225 118.569 156.04 118.382 156.722C118.201 157.405 117.948 157.964 117.624 158.401C117.3 158.833 116.909 159.152 116.453 159.359C115.996 159.565 115.466 159.668 114.862 159.668H113.92ZM133.745 159.668V150.817H131.624C131.05 150.817 130.613 150.949 130.313 151.214C130.014 151.479 129.867 151.794 129.872 152.157C129.867 152.525 130.009 152.837 130.299 153.092C130.593 153.342 131.025 153.468 131.595 153.468H134.791V155.588H131.595C130.628 155.588 129.791 155.441 129.084 155.147C128.377 154.852 127.832 154.442 127.449 153.917C127.066 153.387 126.877 152.77 126.882 152.068C126.877 151.332 127.066 150.686 127.449 150.132C127.832 149.572 128.379 149.138 129.091 148.828C129.808 148.514 130.652 148.357 131.624 148.357H136.668V159.668H133.745ZM126.558 159.668L129.702 153.777H132.699L129.562 159.668H126.558ZM23.0372 184.889C21.8934 184.889 20.9042 184.646 20.0696 184.16C19.2399 183.669 18.5993 182.986 18.1476 182.113C17.696 181.234 17.4702 180.215 17.4702 179.057C17.4702 177.888 17.696 176.867 18.1476 175.993C18.5993 175.115 19.2399 174.432 20.0696 173.946C20.9042 173.455 21.8934 173.21 23.0372 173.21C24.1811 173.21 25.1678 173.455 25.9975 173.946C26.832 174.432 27.4752 175.115 27.9268 175.993C28.3784 176.867 28.6043 177.888 28.6043 179.057C28.6043 180.215 28.3784 181.234 27.9268 182.113C27.4752 182.986 26.832 183.669 25.9975 184.16C25.1678 184.646 24.1811 184.889 23.0372 184.889ZM23.0519 182.459C23.5723 182.459 24.0068 182.311 24.3553 182.017C24.7039 181.717 24.9665 181.31 25.1433 180.795C25.3249 180.279 25.4157 179.692 25.4157 179.035C25.4157 178.377 25.3249 177.79 25.1433 177.275C24.9665 176.759 24.7039 176.352 24.3553 176.052C24.0068 175.753 23.5723 175.603 23.0519 175.603C22.5267 175.603 22.0848 175.753 21.7265 176.052C21.373 176.352 21.1054 176.759 20.9238 177.275C20.7471 177.79 20.6587 178.377 20.6587 179.035C20.6587 179.692 20.7471 180.279 20.9238 180.795C21.1054 181.31 21.373 181.717 21.7265 182.017C22.0848 182.311 22.5267 182.459 23.0519 182.459ZM29.5487 175.824V173.357H39.7991V175.824H36.154V184.668H33.1643V175.824H29.5487ZM39.9059 187.982V182.179H40.7748C41.0252 182.022 41.2265 181.771 41.3787 181.428C41.5358 181.084 41.6634 180.679 41.7616 180.213C41.8647 179.746 41.9432 179.243 41.9972 178.703C42.0561 178.158 42.1077 177.608 42.1519 177.054L42.4464 173.357H51.121V182.179H52.8736V187.982H49.8839V184.668H42.9693V187.982H39.9059ZM43.8971 182.179H48.1608V175.772H45.1121L44.9943 177.054C44.9109 178.261 44.7906 179.287 44.6335 180.132C44.4764 180.971 44.2309 181.654 43.8971 182.179ZM56.6678 176.833H60.0478C61.5451 176.833 62.7135 177.191 63.553 177.908C64.3925 178.62 64.8122 179.572 64.8122 180.765C64.8122 181.541 64.6232 182.223 64.2452 182.812C63.8672 183.396 63.3223 183.853 62.6104 184.182C61.8986 184.506 61.0444 184.668 60.0478 184.668H54.7017V173.357H57.6988V182.201H60.0478C60.5731 182.201 61.0051 182.068 61.3439 181.803C61.6826 181.538 61.8544 181.2 61.8593 180.787C61.8544 180.35 61.6826 179.994 61.3439 179.719C61.0051 179.44 60.5731 179.3 60.0478 179.3H56.6678V176.833ZM66.0273 184.668V173.357H69.1643V184.668H66.0273ZM74.2932 173.357L76.3698 177.311L78.4979 173.357H81.7159L78.439 179.012L81.8043 184.668H78.601L76.3698 180.758L74.1753 184.668H70.9353L74.2932 179.012L71.0531 173.357H74.2932ZM86.7436 184.881C86.0219 184.881 85.3788 184.756 84.8142 184.506C84.2497 184.251 83.8029 183.875 83.474 183.379C83.15 182.878 82.988 182.255 82.988 181.509C82.988 180.88 83.1034 180.353 83.3341 179.926C83.5648 179.498 83.879 179.155 84.2767 178.895C84.6743 178.634 85.126 178.438 85.6316 178.306C86.1422 178.173 86.6773 178.08 87.2369 178.026C87.8948 177.957 88.425 177.893 88.8275 177.834C89.2301 177.77 89.5222 177.677 89.7038 177.554C89.8855 177.432 89.9763 177.25 89.9763 177.01V176.965C89.9763 176.499 89.829 176.138 89.5344 175.883C89.2448 175.628 88.8324 175.5 88.2973 175.5C87.7328 175.5 87.2836 175.625 86.9497 175.875C86.6159 176.121 86.395 176.43 86.287 176.803L83.3856 176.568C83.5329 175.88 83.8226 175.286 84.2546 174.786C84.6866 174.28 85.2438 173.892 85.9262 173.622C86.6135 173.347 87.4088 173.21 88.312 173.21C88.9404 173.21 89.5418 173.283 90.1162 173.431C90.6955 173.578 91.2085 173.806 91.6552 174.116C92.1069 174.425 92.4628 174.822 92.723 175.308C92.9832 175.79 93.1133 176.366 93.1133 177.039V184.668H90.1383V183.099H90.0499C89.8683 183.453 89.6253 183.765 89.3209 184.035C89.0165 184.3 88.6508 184.508 88.2237 184.661C87.7966 184.808 87.3032 184.881 86.7436 184.881ZM87.6419 182.716C88.1034 182.716 88.5109 182.626 88.8643 182.444C89.2178 182.257 89.4952 182.007 89.6964 181.693C89.8977 181.379 89.9984 181.023 89.9984 180.625V179.425C89.9002 179.489 89.7652 179.548 89.5934 179.602C89.4264 179.651 89.2374 179.697 89.0263 179.742C88.8152 179.781 88.6041 179.818 88.393 179.852C88.182 179.881 87.9905 179.908 87.8187 179.933C87.4505 179.987 87.1289 180.073 86.854 180.191C86.5791 180.309 86.3655 180.468 86.2134 180.669C86.0612 180.866 85.9851 181.111 85.9851 181.406C85.9851 181.833 86.1397 182.159 86.449 182.385C86.7632 182.606 87.1608 182.716 87.6419 182.716Z" fill="#636363"/>
<path d="M17.9144 73.9114V67.4735L18.9874 67.381C20.3687 67.27 21.4848 66.7458 22.3358 65.8085C23.1868 64.8588 23.822 63.348 24.2413 61.276C24.673 59.1917 24.9505 56.392 25.0738 52.8771L25.7028 36.0237H51.4177V73.9114H43.6292V42.4431H33.1398L32.5478 55.6335C32.3504 59.8762 31.8448 63.3418 31.0308 66.0305C30.2291 68.7191 28.9465 70.7048 27.1828 71.9874C25.4315 73.2701 23.0327 73.9114 19.9863 73.9114H17.9144ZM70.8241 74.4664C67.9011 74.4664 65.3851 73.8744 63.2761 72.6904C61.1794 71.4941 59.5638 69.8045 58.4291 67.6215C57.2945 65.4262 56.7271 62.83 56.7271 59.833C56.7271 56.91 57.2945 54.3447 58.4291 52.1371C59.5638 49.9294 61.1609 48.2089 63.2206 46.9756C65.2926 45.7423 67.7222 45.1256 70.5096 45.1256C72.3842 45.1256 74.1294 45.4278 75.745 46.0321C77.373 46.6241 78.7913 47.5183 80 48.7146C81.221 49.9109 82.1707 51.4156 82.849 53.2286C83.5273 55.0292 83.8665 57.1382 83.8665 59.5555V61.72H59.8721V56.836H76.448C76.448 55.7014 76.2014 54.6962 75.708 53.8206C75.2147 52.9449 74.5302 52.2604 73.6545 51.7671C72.7912 51.2614 71.786 51.0086 70.6391 51.0086C69.4427 51.0086 68.3821 51.2861 67.4571 51.8411C66.5444 52.3837 65.8291 53.1176 65.3111 54.0426C64.7931 54.9552 64.5279 55.9727 64.5156 57.095V61.7385C64.5156 63.1445 64.7746 64.3593 65.2926 65.383C65.8229 66.4066 66.5691 67.196 67.5311 67.751C68.4931 68.306 69.6339 68.5835 70.9536 68.5835C71.8292 68.5835 72.6309 68.4601 73.3585 68.2135C74.0862 67.9668 74.709 67.5968 75.227 67.1035C75.745 66.6101 76.1397 66.0058 76.411 65.2905L83.7 65.7715C83.33 67.5228 82.5715 69.0521 81.4245 70.3595C80.2898 71.6545 78.8222 72.6658 77.0215 73.3934C75.2332 74.1088 73.1674 74.4664 70.8241 74.4664ZM86.8172 51.6931V45.4956H112.569V51.6931H103.412V73.9114H95.9007V51.6931H86.8172ZM129.168 74.4664C126.294 74.4664 123.809 73.8559 121.713 72.6349C119.628 71.4016 118.019 69.6873 116.884 67.492C115.749 65.2843 115.182 62.7252 115.182 59.8145C115.182 56.8792 115.749 54.3139 116.884 52.1186C118.019 49.9109 119.628 48.1966 121.713 46.9756C123.809 45.7423 126.294 45.1256 129.168 45.1256C132.042 45.1256 134.521 45.7423 136.605 46.9756C138.702 48.1966 140.317 49.9109 141.452 52.1186C142.587 54.3139 143.154 56.8792 143.154 59.8145C143.154 62.7252 142.587 65.2843 141.452 67.492C140.317 69.6873 138.702 71.4016 136.605 72.6349C134.521 73.8559 132.042 74.4664 129.168 74.4664ZM129.205 68.3615C130.512 68.3615 131.604 67.9915 132.48 67.2515C133.355 66.4991 134.015 65.4755 134.459 64.1805C134.915 62.8855 135.144 61.4117 135.144 59.759C135.144 58.1064 134.915 56.6325 134.459 55.3375C134.015 54.0426 133.355 53.0189 132.48 52.2666C131.604 51.5142 130.512 51.1381 129.205 51.1381C127.885 51.1381 126.775 51.5142 125.875 52.2666C124.987 53.0189 124.315 54.0426 123.859 55.3375C123.415 56.6325 123.193 58.1064 123.193 59.759C123.193 61.4117 123.415 62.8855 123.859 64.1805C124.315 65.4755 124.987 66.4991 125.875 67.2515C126.775 67.9915 127.885 68.3615 129.205 68.3615ZM157.695 36.0237L156.973 62.5525H150.202L149.462 36.0237H157.695ZM153.588 74.3924C152.367 74.3924 151.319 73.9608 150.443 73.0974C149.567 72.2218 149.136 71.1735 149.148 69.9525C149.136 68.7438 149.567 67.7078 150.443 66.8445C151.319 65.9812 152.367 65.5495 153.588 65.5495C154.76 65.5495 155.789 65.9812 156.677 66.8445C157.565 67.7078 158.016 68.7438 158.028 69.9525C158.016 70.7665 157.8 71.5126 157.38 72.1909C156.973 72.8569 156.437 73.3934 155.771 73.8004C155.105 74.1951 154.377 74.3924 153.588 74.3924Z" fill="#636363"/>
<g clip-path="url(#clip0_56_1455)">
<path d="M264.917 262.116C313.217 262.116 352.371 222.554 352.371 173.752C352.371 124.95 313.217 85.3877 264.917 85.3877C216.617 85.3877 177.463 124.95 177.463 173.752C177.463 222.554 216.617 262.116 264.917 262.116Z" fill="#FFA903"/>
<path d="M264.917 30.2381L245.93 63.4637H283.904L264.917 30.2381Z" fill="#FFA903"/>
<path d="M122.877 173.74L155.757 192.925V154.567L122.877 173.74Z" fill="#FFA903"/>
<path d="M164.48 72.2711L174.3 109.327L201.155 82.2032L164.48 72.2711Z" fill="#FFA903"/>
<path d="M365.355 72.2711L328.68 82.2032L355.534 109.327L365.355 72.2711Z" fill="#FFA903"/>
<path d="M164.48 273.25L174.3 236.194L201.155 263.318L164.48 273.25Z" fill="#FFA903"/>
</g>
<defs>
<clipPath id="clip0_56_1455">
<rect width="245" height="247.84" fill="white" transform="translate(114 21.3305)"/>
</clipPath>
</defs>
</svg>
