<svg width="338" height="223" viewBox="0 0 338 223" fill="none" xmlns="http://www.w3.org/2000/svg">
<rect width="338" height="223" fill="url(#paint0_linear_140_3)"/>
<circle cx="26" cy="180" r="5" fill="#FFFEFE"/>
<circle cx="41" cy="180" r="5" fill="#FFFEFE"/>
<circle cx="56" cy="180" r="5" fill="#FFFEFE"/>
<path d="M66.1391 184.083V182.666L72.3901 172.775H73.4181V174.97H72.7235L68.0005 182.444V182.555H76.4186V184.083H66.1391ZM72.8346 187V183.652V182.992V172.775H74.4738V187H72.8346ZM78.6881 184.083V182.666L84.9391 172.775H85.967V174.97H85.2725L80.5495 182.444V182.555H88.9675V184.083H78.6881ZM85.3836 187V183.652V182.992V172.775H87.0228V187H85.3836ZM91.237 184.083V182.666L97.4881 172.775H98.516V174.97H97.8215L93.0984 182.444V182.555H101.517V184.083H91.237ZM97.9326 187V183.652V182.992V172.775H99.5717V187H97.9326ZM103.786 184.083V182.666L110.037 172.775H111.065V174.97H110.37L105.647 182.444V182.555H114.065V184.083H103.786ZM110.482 187V183.652V182.992V172.775H112.121V187H110.482Z" fill="white"/>
<path d="M264.112 187.194C263.066 187.194 262.174 186.91 261.438 186.34C260.702 185.766 260.139 184.935 259.75 183.847C259.361 182.754 259.167 181.434 259.167 179.888C259.167 178.35 259.361 177.038 259.75 175.95C260.144 174.857 260.709 174.023 261.445 173.449C262.186 172.87 263.075 172.581 264.112 172.581C265.149 172.581 266.036 172.87 266.772 173.449C267.513 174.023 268.078 174.857 268.467 175.95C268.861 177.038 269.057 178.35 269.057 179.888C269.057 181.434 268.863 182.754 268.474 183.847C268.085 184.935 267.522 185.766 266.786 186.34C266.05 186.91 265.159 187.194 264.112 187.194ZM264.112 185.666C265.149 185.666 265.955 185.166 266.529 184.166C267.103 183.166 267.39 181.74 267.39 179.888C267.39 178.656 267.258 177.607 266.995 176.741C266.735 175.875 266.36 175.216 265.869 174.762C265.383 174.308 264.797 174.081 264.112 174.081C263.084 174.081 262.281 174.588 261.702 175.602C261.123 176.612 260.834 178.04 260.834 179.888C260.834 181.119 260.963 182.166 261.223 183.027C261.482 183.888 261.855 184.544 262.341 184.993C262.832 185.442 263.422 185.666 264.112 185.666ZM271.759 187L278.121 174.415V174.303H270.787V172.775H279.899V174.387L273.565 187H271.759ZM287.545 172.109L282.961 189.139H281.461L286.045 172.109H287.545ZM289.46 187V185.75L294.155 180.61C294.706 180.008 295.16 179.485 295.517 179.04C295.873 178.591 296.137 178.17 296.308 177.776C296.484 177.378 296.572 176.961 296.572 176.526C296.572 176.026 296.452 175.593 296.211 175.227C295.975 174.861 295.651 174.579 295.239 174.38C294.827 174.181 294.364 174.081 293.85 174.081C293.303 174.081 292.826 174.195 292.419 174.422C292.016 174.644 291.704 174.956 291.481 175.359C291.264 175.762 291.155 176.234 291.155 176.776H289.516C289.516 175.943 289.708 175.211 290.092 174.581C290.476 173.952 291 173.461 291.662 173.109C292.329 172.757 293.076 172.581 293.905 172.581C294.739 172.581 295.477 172.757 296.121 173.109C296.765 173.461 297.269 173.935 297.635 174.533C298.001 175.13 298.184 175.794 298.184 176.526C298.184 177.049 298.089 177.561 297.899 178.061C297.714 178.556 297.39 179.11 296.927 179.721C296.468 180.328 295.832 181.068 295.017 181.944L291.822 185.361V185.472H298.434V187H289.46ZM306.109 187.194C305.192 187.194 304.375 187.037 303.657 186.722C302.944 186.407 302.377 185.97 301.955 185.409C301.539 184.845 301.312 184.189 301.275 183.444H303.025C303.062 183.902 303.219 184.298 303.497 184.632C303.775 184.96 304.139 185.215 304.588 185.396C305.037 185.576 305.535 185.666 306.081 185.666C306.692 185.666 307.234 185.56 307.706 185.347C308.179 185.134 308.549 184.838 308.818 184.458C309.086 184.078 309.22 183.638 309.22 183.138C309.22 182.615 309.091 182.154 308.831 181.756C308.572 181.353 308.192 181.038 307.692 180.811C307.192 180.585 306.581 180.471 305.859 180.471H304.72V178.943H305.859C306.424 178.943 306.919 178.841 307.345 178.637C307.776 178.434 308.111 178.147 308.352 177.776C308.598 177.406 308.72 176.971 308.72 176.47C308.72 175.989 308.614 175.57 308.401 175.213C308.188 174.857 307.887 174.579 307.498 174.38C307.114 174.181 306.66 174.081 306.137 174.081C305.646 174.081 305.183 174.171 304.747 174.352C304.317 174.528 303.965 174.785 303.692 175.123C303.418 175.456 303.27 175.859 303.247 176.332H301.58C301.608 175.586 301.833 174.933 302.254 174.373C302.675 173.808 303.226 173.368 303.907 173.053C304.592 172.738 305.345 172.581 306.164 172.581C307.044 172.581 307.799 172.759 308.429 173.116C309.058 173.468 309.542 173.933 309.88 174.512C310.218 175.091 310.387 175.716 310.387 176.387C310.387 177.188 310.177 177.871 309.755 178.436C309.338 179.001 308.771 179.392 308.054 179.61V179.721C308.952 179.869 309.653 180.251 310.158 180.867C310.663 181.478 310.915 182.235 310.915 183.138C310.915 183.912 310.704 184.606 310.283 185.222C309.866 185.833 309.297 186.315 308.574 186.667C307.852 187.019 307.03 187.194 306.109 187.194Z" fill="white"/>
<defs>
<linearGradient id="paint0_linear_140_3" x1="338" y1="223" x2="140.5" y2="22" gradientUnits="userSpaceOnUse">
<stop stop-color="#A98D29"/>
<stop offset="1" stop-color="#FDD05B"/>
</linearGradient>
</defs>
</svg>
