<svg width="107" height="107" viewBox="0 0 107 107" fill="none" xmlns="http://www.w3.org/2000/svg">
<g filter="url(#filter0_d_47_1318)">
<path d="M4 20C4 8.95431 12.9543 0 24 0H83C94.0457 0 103 8.9543 103 20V79C103 90.0457 94.0457 99 83 99H24C12.9543 99 4 90.0457 4 79V20Z" fill="#D9D9D9"/>
</g>
<g opacity="0.5">
<path d="M52.625 73.25C65.6727 73.25 76.25 62.6727 76.25 49.625C76.25 36.5773 65.6727 26 52.625 26C39.5773 26 29 36.5773 29 49.625C29 62.6727 39.5773 73.25 52.625 73.25Z" fill="#FACC20"/>
<path d="M65.225 39.6828L63.4531 40.2734L62.075 44.3093L60.6969 40.2734L56.6609 38.8953L60.6969 37.5172L61.1891 36.0406C58.7281 34.4656 55.6766 33.4812 52.5266 33.4812C43.6672 33.4812 36.4812 40.6672 36.4812 49.5265C36.4812 58.3859 43.7656 65.6703 52.625 65.6703C61.4844 65.6703 68.6703 58.4843 68.6703 49.625C68.6703 45.8843 67.2922 42.439 65.225 39.6828Z" fill="#FDEF34"/>
<path opacity="0.1" d="M58.3344 51.889C58.1375 51.2984 57.35 49.4281 53.4125 48.6406V43.8172C54.3969 44.1125 54.9875 44.8015 55.2828 45.7859C55.4797 46.5734 55.9719 46.9671 56.7594 46.9671C57.1531 46.9671 59.6141 46.2781 57.1531 43.1281C56.7594 42.6359 55.9719 41.75 53.5109 41.4547V39.4859H52.0344V41.4547C47.5062 41.9468 47.1125 44.9 47.1125 46.1796C47.1125 50.1171 51.05 50.9046 52.0344 51.2V56.614C50.1641 56.1218 49.7703 54.2515 49.5734 53.5625C49.2781 52.6765 48.4906 52.5781 48.1953 52.5781C47.0141 52.6765 46.7188 53.6609 46.7188 54.0546C46.7188 54.5468 47.0141 56.9093 49.7703 58.2875C50.4594 58.6812 51.2469 58.8781 52.1328 58.9765V60.8468H53.6094V58.9765C54.6922 58.8781 55.6766 58.5828 56.4641 58.0906C58.5313 56.9093 59.2203 54.35 58.3344 51.889ZM51.9359 48.2468C50.7547 47.6562 49.8688 47.4593 49.8688 45.9828C49.8688 45.2937 50.0656 44.2109 51.9359 43.8172V48.2468ZM53.4125 56.8109V51.6921C55.775 52.4796 55.8734 53.464 55.8734 54.1531C55.8734 54.8421 55.775 56.3187 53.4125 56.8109Z" fill="#231F20"/>
<path opacity="0.2" d="M31.0672 51.6922C31.0672 38.6 41.6 28.0672 54.6922 28.0672C60.6969 28.0672 66.2094 30.3313 70.3438 33.9734C66.0125 29.0516 59.7125 26 52.625 26C39.5328 26 29 36.5328 29 49.625C29 56.7125 32.0516 63.0125 36.9734 67.3438C33.2328 63.1109 31.0672 57.6969 31.0672 51.6922Z" fill="white"/>
<path opacity="0.1" d="M68.2766 31.9062C72.0172 36.0406 74.1828 41.5531 74.1828 47.5578C74.1828 60.65 63.65 71.1828 50.5578 71.1828C44.5531 71.1828 39.0406 68.9188 34.9062 65.2766C39.2375 70.1984 45.5375 73.25 52.625 73.25C65.7172 73.25 76.25 62.7172 76.25 49.625C76.25 42.5375 73.1984 36.2375 68.2766 31.9062Z" fill="#231F20"/>
<g opacity="0.3">
<path d="M66.3078 30.4297L33.4297 63.3078C33.1344 62.8157 32.7406 62.3235 32.4453 61.8313L64.9297 29.3469C65.4219 29.7407 65.8156 30.036 66.3078 30.4297Z" fill="white"/>
<path d="M72.8047 37.4188L40.3203 69.9032C38.7453 68.9188 37.3672 67.836 35.9891 66.5563L69.3594 33.186C70.7375 34.3672 71.9188 35.8438 72.8047 37.4188Z" fill="white"/>
</g>
<path d="M58.3344 51.2C58.1375 50.6094 57.35 48.7391 53.4125 47.9516V43.1281C54.3969 43.4234 54.9875 44.1125 55.2828 45.0969C55.4797 45.8844 55.9719 46.2781 56.7594 46.2781C57.1531 46.2781 59.6141 45.5891 57.1531 42.4391C56.7594 41.9469 55.9719 41.0609 53.5109 40.7656V38.7969H52.0344V40.7656C47.5062 41.2578 47.1125 44.2109 47.1125 45.4906C47.1125 49.4281 51.05 50.2156 52.0344 50.5109V55.925C50.1641 55.4328 49.7703 53.5625 49.5734 52.8734C49.2781 51.9875 48.4906 51.8891 48.1953 51.8891C47.0141 51.9875 46.7188 52.9719 46.7188 53.3656C46.7188 53.8578 47.0141 56.2203 49.7703 57.5984C50.4594 57.9922 51.2469 58.1891 52.1328 58.2875V60.1578H53.6094V58.2875C54.6922 58.1891 55.6766 57.8938 56.4641 57.4016C58.5313 56.2203 59.2203 53.6609 58.3344 51.2ZM51.9359 47.5578C50.7547 46.9672 49.8688 46.7703 49.8688 45.2937C49.8688 44.6047 50.0656 43.5219 51.9359 43.1281V47.5578ZM53.4125 56.1219V51.0031C55.775 51.7906 55.8734 52.775 55.8734 53.4641C55.8734 54.1531 55.775 55.6297 53.4125 56.1219Z" fill="#F7A90B"/>
<path d="M60.7953 40.2734L56.8578 38.9937L60.7953 37.6156L62.1734 33.5797L63.4531 37.6156L67.4891 38.9937L63.4531 40.2734L62.1734 44.3093L60.7953 40.2734Z" fill="white"/>
<path d="M66.7016 45.0969L64.4375 44.3094L66.7016 43.5219L67.4891 41.2578L68.2766 43.5219L70.5406 44.3094L68.2766 45.0969L67.4891 47.3609L66.7016 45.0969Z" fill="white"/>
</g>
<defs>
<filter id="filter0_d_47_1318" x="0" y="0" width="107" height="107" filterUnits="userSpaceOnUse" color-interpolation-filters="sRGB">
<feFlood flood-opacity="0" result="BackgroundImageFix"/>
<feColorMatrix in="SourceAlpha" type="matrix" values="0 0 0 0 0 0 0 0 0 0 0 0 0 0 0 0 0 0 127 0" result="hardAlpha"/>
<feOffset dy="4"/>
<feGaussianBlur stdDeviation="2"/>
<feComposite in2="hardAlpha" operator="out"/>
<feColorMatrix type="matrix" values="0 0 0 0 0 0 0 0 0 0 0 0 0 0 0 0 0 0 0.25 0"/>
<feBlend mode="normal" in2="BackgroundImageFix" result="effect1_dropShadow_47_1318"/>
<feBlend mode="normal" in="SourceGraphic" in2="effect1_dropShadow_47_1318" result="shape"/>
</filter>
</defs>
</svg>
