<svg width="72" height="75" viewBox="0 0 72 75" fill="none" xmlns="http://www.w3.org/2000/svg">
<path d="M44.5336 46.136L8.91071 65.4229C8.91071 65.4229 1.73195 69.3654 3.61372 72.2727C4.64409 73.8642 7.8755 73.5207 11.5132 72.471C17.5746 70.7199 64.4106 53.3099 69.5625 42.9482C73.505 35.0196 49.5065 4.43248 49.5065 4.43248C49.5065 4.43248 47.3732 1.11884 44.5433 2.22661C41.7956 3.29569 54.4165 29.9354 54.4165 29.9354C54.4165 29.9354 55.8096 33.4958 55.2824 36.1661C54.4213 40.573 44.5336 46.136 44.5336 46.136Z" fill="#FCB149"/>
<path d="M44.5336 46.1361L8.91071 65.4229C8.91071 65.4229 1.73195 69.3654 3.61372 72.2727C4.64409 73.8642 7.8755 73.5208 11.5132 72.471C17.5746 70.7199 64.4106 53.31 69.5625 42.9482C73.505 35.0196 49.5065 4.43251 49.5065 4.43251C49.5065 4.43251 47.3732 1.11887 44.5433 2.22664C41.7956 3.29572 54.4165 29.9355 54.4165 29.9355C54.4165 29.9355 55.8096 33.4958 55.2824 36.1661C54.4213 40.573 44.5336 46.1361 44.5336 46.1361Z" stroke="#FCB149" stroke-width="2.41872" stroke-miterlimit="10" stroke-linecap="round" stroke-linejoin="round"/>
<path d="M21.6573 45.87C20.3948 37.9027 25.832 30.4192 33.8041 29.1566" stroke="#FCB149" stroke-width="2.41872" stroke-miterlimit="10" stroke-linecap="round" stroke-linejoin="round"/>
<path d="M12.7323 47.2825C10.6909 34.3859 19.495 22.273 32.3916 20.2316C32.8657 20.159 33.3349 20.0961 33.8042 20.0526" stroke="#FCB149" stroke-width="2.41872" stroke-miterlimit="10" stroke-linecap="round" stroke-linejoin="round"/>
<path d="M2.4237 48.9127C-0.517458 30.3225 12.1663 12.869 30.7566 9.92786" stroke="#FCB149" stroke-width="2.41872" stroke-miterlimit="10" stroke-linecap="round" stroke-linejoin="round"/>
<path d="M48.5 42.2393L62.5 51.2393L56.5 54.7393L31.5 51.7393L48.5 42.2393Z" fill="#FF0000"/>
</svg>
