<svg width="31" height="39" viewBox="0 0 31 39" fill="none" xmlns="http://www.w3.org/2000/svg">
<path d="M15.5 20.6667C13.4563 20.6667 11.4584 20.0606 9.7591 18.9252C8.05979 17.7897 6.73534 16.1759 5.95324 14.2877C5.17113 12.3996 4.9665 10.3219 5.36521 8.3174C5.76393 6.31293 6.74808 4.47171 8.19322 3.02657C9.63837 1.58143 11.4796 0.597271 13.4841 0.198557C15.4885 -0.200157 17.5662 0.00447724 19.4544 0.786583C21.3426 1.56869 22.9564 2.89314 24.0918 4.59245C25.2273 6.29175 25.8333 8.2896 25.8333 10.3333C25.8333 13.0739 24.7446 15.7022 22.8068 17.6401C20.8689 19.578 18.2406 20.6667 15.5 20.6667ZM15.5 2.58334C13.9672 2.58334 12.4688 3.03787 11.1943 3.88945C9.91984 4.74103 8.92651 5.95141 8.33993 7.36754C7.75335 8.78367 7.59987 10.3419 7.89891 11.8453C8.19794 13.3486 8.93606 14.7296 10.0199 15.8134C11.1038 16.8973 12.4847 17.6354 13.988 17.9344C15.4914 18.2335 17.0497 18.08 18.4658 17.4934C19.8819 16.9068 21.0923 15.9135 21.9439 14.639C22.7955 13.3645 23.25 11.8661 23.25 10.3333C23.25 8.27791 22.4335 6.30667 20.9801 4.85326C19.5267 3.39985 17.5554 2.58334 15.5 2.58334Z" fill="white"/>
<path d="M24.5417 38.75H6.45833C4.74548 38.75 3.10277 38.0696 1.8916 36.8584C0.68043 35.6472 0 34.0045 0 32.2917V27.125C3.90957e-05 26.9008 0.0584135 26.6805 0.169384 26.4858C0.280354 26.291 0.4401 26.1285 0.632916 26.0142L7.09125 22.1392C7.38264 22.0075 7.71252 21.9885 8.01706 22.086C8.32159 22.1835 8.57914 22.3905 8.73986 22.667C8.90058 22.9434 8.95305 23.2697 8.88711 23.5825C8.82118 23.8954 8.64152 24.1728 8.38292 24.3608L2.58333 27.8612V32.2917C2.58333 33.3194 2.99159 34.305 3.71829 35.0317C4.445 35.7584 5.43062 36.1667 6.45833 36.1667H24.5417C25.5694 36.1667 26.555 35.7584 27.2817 35.0317C28.0084 34.305 28.4167 33.3194 28.4167 32.2917V27.8612L22.5912 24.3608C22.4266 24.2864 22.2793 24.1782 22.159 24.0433C22.0388 23.9084 21.9482 23.7498 21.893 23.5776C21.8379 23.4055 21.8196 23.2237 21.8391 23.0441C21.8587 22.8644 21.9157 22.6908 22.0066 22.5346C22.0974 22.3783 22.22 22.2429 22.3665 22.137C22.5129 22.0311 22.68 21.9571 22.8569 21.9199C23.0337 21.8826 23.2164 21.8829 23.3932 21.9206C23.5699 21.9584 23.7367 22.0329 23.8829 22.1392L30.3412 26.0142C30.5389 26.1252 30.7038 26.2863 30.8194 26.4813C30.9351 26.6763 30.9973 26.8983 31 27.125V32.2917C31 34.0045 30.3196 35.6472 29.1084 36.8584C27.8972 38.0696 26.2545 38.75 24.5417 38.75Z" fill="white"/>
</svg>
